<?xml version="1.0" encoding="UTF-8" standalone="no"?>
<!DOCTYPE svg PUBLIC "-//W3C//DTD SVG 1.1//EN" "http://www.w3.org/Graphics/SVG/1.1/DTD/svg11.dtd">
<svg width="100%" height="100%" viewBox="0 0 500 501" version="1.1" xmlns="http://www.w3.org/2000/svg" xmlns:xlink="http://www.w3.org/1999/xlink" xml:space="preserve" xmlns:serif="http://www.serif.com/" style="fill-rule:evenodd;clip-rule:evenodd;stroke-linejoin:round;stroke-miterlimit:2;">
    <g transform="matrix(1.928,0,0,1.706,63,-14.706)">
        <rect x="0" y="1" width="500" height="500" style="fill:none;"/>
        <path d="M35.702,231.954C35.702,231.954 38.608,217.364 39.698,205.014C40.787,192.663 44.42,136.359 45.146,126.551C45.873,116.744 50.232,53.902 91.279,55.718C128.295,57.356 129.058,108.026 130.147,130.911C131.237,153.795 136.686,219.907 139.955,228.262C139.955,228.262 141.771,235.708 140.863,236.253C139.955,236.798 129.603,233.347 124.88,224.448C120.158,215.548 117.979,213.732 115.617,217.546C113.256,221.36 110.168,242.429 103.63,242.065C97.091,241.702 94.367,214.821 87.283,214.64C83.754,214.549 81.713,220.589 79.43,226.628C77.131,232.712 74.586,238.797 70.029,238.614C60.948,238.251 63.854,215.73 59.313,215.003C57.314,214.683 52.993,219.454 48.565,224.224C42.932,230.292 37.125,236.36 35.702,231.954Z" style="fill:rgb(235,236,232);fill-rule:nonzero;"/>
        <path d="M140.556,236.309C140.695,236.309 140.798,236.291 140.859,236.256C140.798,236.291 140.695,236.309 140.556,236.309ZM140.552,236.309C140.541,236.309 140.529,236.309 140.517,236.308C140.529,236.309 140.541,236.309 140.552,236.309ZM140.508,236.308C139.559,236.283 137.107,235.516 134.31,233.897C137.108,235.516 139.559,236.283 140.508,236.308ZM134.302,233.892L134.301,233.892L134.302,233.892ZM124.851,224.392C124.789,224.277 124.73,224.171 124.668,224.055C124.671,224.058 124.673,224.06 124.676,224.063C124.734,224.172 124.792,224.281 124.851,224.392ZM130.147,130.911C130.145,130.865 130.143,130.819 130.141,130.773C130.143,130.819 130.145,130.865 130.147,130.911ZM130.141,130.765C130.138,130.722 130.136,130.678 130.134,130.634C130.136,130.677 130.138,130.722 130.141,130.765ZM130.134,130.625C130.132,130.612 130.132,130.6 130.132,130.587C130.132,130.599 130.132,130.613 130.134,130.625ZM130.132,130.579C130.131,130.554 130.129,130.526 130.128,130.501C130.129,130.528 130.13,130.552 130.132,130.579ZM130.127,130.476C130.127,130.473 130.127,130.468 130.126,130.466C130.127,130.469 130.127,130.473 130.127,130.476Z" style="fill:rgb(26,45,64);fill-rule:nonzero;"/>
        <path d="M140.556,236.309L140.552,236.309C140.541,236.309 140.529,236.309 140.517,236.308L140.508,236.308C139.559,236.283 137.108,235.516 134.31,233.897C134.307,233.895 134.305,233.894 134.302,233.892L134.301,233.892C131.009,231.984 127.241,228.897 124.88,224.447C124.87,224.429 124.861,224.411 124.851,224.392C124.792,224.281 124.734,224.172 124.676,224.063C129.306,229.343 135.574,231.677 137.134,231.677C137.273,231.677 137.375,231.658 137.435,231.622C138.327,231.077 136.543,223.63 136.543,223.63C133.333,215.275 127.984,149.164 126.914,126.279C126.233,111.726 125.679,85.939 116.021,68.668C128.667,85.462 129.377,114.446 130.126,130.466C130.127,130.468 130.127,130.473 130.127,130.476C130.127,130.484 130.128,130.493 130.128,130.501C130.129,130.526 130.131,130.554 130.132,130.579L130.132,130.587C130.132,130.6 130.132,130.612 130.134,130.625L130.134,130.634C130.136,130.678 130.138,130.722 130.141,130.765L130.141,130.773C130.143,130.819 130.145,130.865 130.147,130.911C131.237,153.795 136.686,219.907 139.955,228.262C139.955,228.262 141.117,233.025 141.118,235.211C141.118,235.759 141.045,236.144 140.863,236.253C140.862,236.254 140.861,236.255 140.859,236.256C140.798,236.291 140.695,236.309 140.556,236.309Z" style="fill:rgb(212,215,214);fill-rule:nonzero;"/>
        <path d="M37.41,233.461L37.408,233.461L37.41,233.461ZM37.487,233.46C37.515,233.459 37.544,233.457 37.572,233.455C37.544,233.457 37.515,233.459 37.487,233.46ZM37.611,233.451C37.619,233.451 37.626,233.45 37.633,233.449C37.626,233.45 37.619,233.451 37.611,233.451ZM37.654,233.447C37.662,233.446 37.67,233.445 37.678,233.444C37.67,233.445 37.662,233.446 37.654,233.447ZM37.722,233.439C37.723,233.438 37.724,233.438 37.724,233.438C37.724,233.438 37.723,233.438 37.722,233.439ZM37.749,233.435C37.754,233.434 37.758,233.433 37.763,233.432C37.758,233.433 37.754,233.434 37.749,233.435ZM37.778,233.43C37.785,233.429 37.792,233.428 37.799,233.427C37.792,233.428 37.785,233.429 37.778,233.43ZM37.905,233.406C37.909,233.406 37.913,233.405 37.917,233.404C37.913,233.405 37.909,233.406 37.905,233.406ZM37.968,233.393C37.976,233.391 37.984,233.389 37.993,233.387C37.984,233.389 37.976,233.391 37.968,233.393ZM35.711,231.983C35.71,231.979 35.709,231.975 35.707,231.972C35.709,231.975 35.71,231.979 35.711,231.983ZM35.702,231.953L35.702,231.952L35.702,231.953ZM35.702,231.952L35.702,231.951L35.702,231.952ZM35.702,231.95C35.717,231.877 35.95,230.7 36.302,228.78C35.95,230.702 35.717,231.877 35.702,231.95ZM47.799,225.047C47.857,224.985 47.915,224.923 47.973,224.861C47.915,224.923 47.857,224.985 47.799,225.047ZM48.025,224.805C48.058,224.77 48.091,224.734 48.124,224.699C48.091,224.734 48.058,224.77 48.025,224.805ZM48.156,224.665C48.197,224.621 48.238,224.576 48.279,224.532C48.238,224.576 48.197,224.621 48.156,224.665ZM48.31,224.498C48.326,224.481 48.342,224.465 48.357,224.448C48.342,224.465 48.326,224.481 48.31,224.498ZM48.432,224.368C48.439,224.36 48.446,224.352 48.453,224.344C48.446,224.352 48.439,224.36 48.432,224.368ZM48.484,224.311C48.496,224.298 48.508,224.285 48.52,224.272C48.508,224.285 48.496,224.298 48.484,224.311ZM48.731,224.045C48.736,224.04 48.741,224.035 48.746,224.029C48.741,224.035 48.736,224.04 48.731,224.045ZM48.799,223.972C48.823,223.946 48.846,223.922 48.869,223.896C48.846,223.922 48.823,223.946 48.799,223.972ZM48.897,223.866C48.926,223.835 48.955,223.804 48.983,223.773C48.955,223.804 48.926,223.835 48.897,223.866ZM59.821,215.205C59.662,215.108 59.495,215.032 59.313,215.003C59.309,215.002 59.305,215.002 59.301,215.001C59.305,215.002 59.309,215.002 59.313,215.003C59.493,215.032 59.661,215.095 59.818,215.189C59.819,215.194 59.82,215.199 59.821,215.205ZM59.003,214.992C59.008,214.992 59.013,214.991 59.018,214.991C59.013,214.991 59.008,214.992 59.003,214.992Z" style="fill:rgb(26,45,64);fill-rule:nonzero;"/>
        <path d="M37.41,233.461L37.408,233.461C36.638,233.46 36.052,233.014 35.711,231.983C35.71,231.979 35.709,231.975 35.707,231.972C35.705,231.966 35.704,231.96 35.702,231.954L35.702,231.95C35.717,231.877 35.95,230.702 36.302,228.78C41.438,227.773 53.211,210.356 57.17,210.356C57.237,210.356 57.303,210.361 57.365,210.372C58.621,210.576 59.296,212.509 59.818,215.189C59.661,215.095 59.493,215.032 59.313,215.003C59.309,215.002 59.305,215.002 59.301,215.001C59.241,214.992 59.179,214.988 59.115,214.988C59.083,214.988 59.051,214.989 59.018,214.991C59.013,214.991 59.008,214.992 59.003,214.992C56.961,215.145 53.047,219.391 48.983,223.773C48.955,223.804 48.926,223.835 48.897,223.866C48.888,223.876 48.878,223.887 48.869,223.896C48.846,223.922 48.823,223.946 48.799,223.972C48.782,223.991 48.764,224.01 48.746,224.029C48.741,224.035 48.736,224.04 48.731,224.045C48.676,224.105 48.62,224.165 48.565,224.224C48.55,224.24 48.535,224.256 48.52,224.272C48.508,224.285 48.496,224.298 48.484,224.311C48.474,224.322 48.463,224.333 48.453,224.344C48.446,224.352 48.439,224.36 48.432,224.368C48.407,224.394 48.382,224.421 48.357,224.448C48.342,224.465 48.326,224.481 48.31,224.498C48.3,224.51 48.289,224.521 48.279,224.532C48.238,224.576 48.197,224.621 48.156,224.665C48.145,224.676 48.135,224.687 48.124,224.699C48.091,224.734 48.058,224.77 48.025,224.805C48.007,224.824 47.99,224.842 47.973,224.861C47.915,224.923 47.857,224.985 47.799,225.047C44.081,229.034 40.376,232.815 37.993,233.387C37.984,233.389 37.976,233.391 37.968,233.393C37.951,233.397 37.934,233.4 37.917,233.404C37.913,233.405 37.909,233.406 37.905,233.406C37.87,233.414 37.834,233.421 37.799,233.427C37.792,233.428 37.785,233.429 37.778,233.43C37.773,233.431 37.768,233.432 37.763,233.432C37.758,233.433 37.754,233.434 37.749,233.435C37.741,233.436 37.732,233.437 37.724,233.438C37.724,233.438 37.723,233.438 37.722,233.439C37.707,233.441 37.693,233.442 37.678,233.444C37.67,233.445 37.662,233.446 37.654,233.447C37.647,233.448 37.64,233.449 37.633,233.449C37.626,233.45 37.619,233.451 37.611,233.451C37.598,233.453 37.585,233.454 37.572,233.455C37.544,233.457 37.515,233.459 37.487,233.46C37.461,233.461 37.435,233.461 37.41,233.461Z" style="fill:rgb(212,215,214);fill-rule:nonzero;"/>
        <path d="M70.232,238.618C73.868,238.615 76.206,234.577 78.18,229.817C76.206,234.578 73.868,238.615 70.232,238.618ZM70.012,238.614C70.011,238.614 70.008,238.613 70.007,238.613C70.008,238.613 70.011,238.614 70.012,238.614ZM69.995,238.613L69.989,238.613L69.995,238.613ZM69.974,238.612C69.972,238.612 69.97,238.612 69.967,238.611C69.97,238.612 69.972,238.612 69.974,238.612ZM69.958,238.611L69.951,238.611L69.958,238.611ZM69.936,238.61C69.934,238.61 69.932,238.61 69.929,238.609C69.932,238.61 69.934,238.61 69.936,238.61ZM69.92,238.609C69.917,238.609 69.915,238.609 69.912,238.608C69.915,238.609 69.917,238.609 69.92,238.609ZM69.902,238.608C69.898,238.608 69.895,238.607 69.89,238.607C69.895,238.607 69.898,238.607 69.902,238.608ZM69.882,238.606L69.873,238.606L69.882,238.606ZM69.865,238.605L69.858,238.605L69.865,238.605ZM69.843,238.604C69.841,238.604 69.838,238.603 69.836,238.603C69.838,238.603 69.841,238.604 69.843,238.604ZM69.827,238.602L69.82,238.602L69.827,238.602ZM69.805,238.601C69.803,238.601 69.801,238.6 69.799,238.6C69.801,238.6 69.803,238.601 69.805,238.601ZM69.788,238.599L69.782,238.599L69.788,238.599ZM69.769,238.598C69.768,238.597 69.767,238.597 69.766,238.597C69.767,238.597 69.768,238.598 69.769,238.598ZM69.75,238.596C69.749,238.596 69.747,238.596 69.746,238.595C69.747,238.596 69.748,238.596 69.75,238.596ZM69.731,238.594L69.729,238.594L69.731,238.594ZM79.423,226.647C79.426,226.641 79.428,226.635 79.43,226.628C79.428,226.635 79.426,226.641 79.423,226.647ZM79.449,226.58C79.453,226.57 79.456,226.56 79.46,226.55C79.456,226.56 79.453,226.57 79.449,226.58ZM79.471,226.521C79.475,226.511 79.478,226.502 79.482,226.492C79.478,226.502 79.475,226.511 79.471,226.521ZM79.487,226.478C79.489,226.475 79.49,226.471 79.491,226.467C79.49,226.471 79.489,226.475 79.487,226.478ZM79.52,226.39C79.522,226.385 79.525,226.379 79.526,226.374C79.525,226.379 79.522,226.385 79.52,226.39ZM79.547,226.32C79.551,226.31 79.554,226.3 79.558,226.29C79.554,226.3 79.551,226.31 79.547,226.32ZM79.565,226.273C81.776,220.401 83.791,214.644 87.2,214.639C83.791,214.645 81.776,220.402 79.565,226.273ZM90.464,216.676C89.498,215.435 88.45,214.67 87.283,214.64C88.445,214.669 89.489,215.417 90.453,216.649C90.456,216.658 90.46,216.667 90.464,216.676Z" style="fill:rgb(26,45,64);fill-rule:nonzero;"/>
        <path d="M70.228,238.618C70.162,238.618 70.096,238.617 70.029,238.614L70.012,238.614C70.011,238.614 70.008,238.613 70.007,238.613L69.989,238.613C69.984,238.612 69.979,238.612 69.974,238.612C69.972,238.612 69.97,238.612 69.967,238.611L69.951,238.611C69.946,238.61 69.941,238.61 69.936,238.61C69.934,238.61 69.932,238.61 69.929,238.609L69.92,238.609C69.917,238.609 69.915,238.609 69.912,238.608L69.902,238.608C69.898,238.607 69.895,238.607 69.89,238.607C69.888,238.607 69.885,238.607 69.882,238.606L69.873,238.606C69.87,238.606 69.868,238.605 69.865,238.605L69.858,238.605C69.853,238.604 69.848,238.604 69.843,238.604C69.841,238.604 69.838,238.603 69.836,238.603C69.833,238.603 69.83,238.603 69.827,238.602L69.82,238.602C69.815,238.601 69.81,238.601 69.805,238.601C69.803,238.601 69.801,238.6 69.799,238.6C69.796,238.6 69.792,238.6 69.788,238.599L69.782,238.599C69.778,238.598 69.773,238.598 69.769,238.598C69.768,238.598 69.767,238.597 69.766,238.597C69.761,238.597 69.755,238.596 69.75,238.596C69.748,238.596 69.747,238.596 69.746,238.595C69.741,238.595 69.736,238.595 69.731,238.594L69.729,238.594C69.723,238.593 69.717,238.593 69.711,238.592C66.677,238.288 65.044,235.406 64.008,231.758C64.976,233.078 66.227,233.915 67.887,233.983C67.953,233.986 68.017,233.987 68.082,233.987C72.434,233.986 74.893,227.992 77.118,221.997C79.342,216.002 81.333,210.007 84.751,210.007C84.776,210.007 84.802,210.008 84.828,210.008C87.054,210.066 88.84,212.865 90.453,216.649C89.489,215.417 88.445,214.669 87.283,214.64C87.257,214.639 87.231,214.639 87.205,214.639L87.2,214.639C83.791,214.644 81.776,220.401 79.565,226.273C79.562,226.278 79.56,226.284 79.558,226.29C79.554,226.3 79.551,226.31 79.547,226.32C79.54,226.338 79.533,226.356 79.526,226.374C79.525,226.379 79.522,226.385 79.52,226.39C79.511,226.416 79.501,226.441 79.491,226.467C79.49,226.471 79.489,226.475 79.487,226.478C79.485,226.483 79.484,226.487 79.482,226.492C79.478,226.502 79.475,226.511 79.471,226.521C79.467,226.53 79.464,226.541 79.46,226.55C79.456,226.56 79.453,226.57 79.449,226.58C79.443,226.596 79.437,226.612 79.43,226.628C79.428,226.635 79.426,226.641 79.423,226.647C79.019,227.715 78.608,228.783 78.18,229.817C76.206,234.577 73.868,238.615 70.232,238.618L70.228,238.618Z" style="fill:rgb(212,215,214);fill-rule:nonzero;"/>
        <path d="M103.801,242.07C110.113,242.06 113.172,222.028 115.497,217.754C113.172,222.028 110.114,242.062 103.801,242.07ZM103.619,242.065L103.618,242.065L103.619,242.065ZM103.608,242.064L103.606,242.064L103.608,242.064ZM115.506,217.737C115.509,217.732 115.512,217.726 115.515,217.721C115.512,217.726 115.509,217.732 115.506,217.737ZM115.535,217.686C115.547,217.664 115.56,217.641 115.573,217.62C115.56,217.641 115.547,217.664 115.535,217.686ZM115.58,217.607C115.583,217.602 115.586,217.597 115.589,217.592C115.586,217.597 115.583,217.602 115.58,217.607ZM115.59,217.591C115.596,217.581 115.602,217.571 115.608,217.561C115.602,217.571 115.596,217.581 115.59,217.591ZM115.656,217.483C116.41,216.284 117.147,215.661 117.956,215.661C118.654,215.661 119.405,216.125 120.267,217.083C120.274,217.095 120.28,217.107 120.287,217.119C119.414,216.144 118.655,215.671 117.949,215.671C117.143,215.671 116.407,216.289 115.656,217.483Z" style="fill:rgb(26,45,64);fill-rule:nonzero;"/>
        <path d="M103.797,242.07C103.742,242.07 103.685,242.069 103.63,242.065L103.618,242.065C103.614,242.065 103.611,242.064 103.608,242.064L103.606,242.064C101.68,241.938 100.085,239.5 98.611,236.135C99.317,236.918 100.068,237.388 100.878,237.434C100.933,237.437 100.987,237.438 101.042,237.438C107.35,237.438 110.349,216.696 112.647,212.914C113.4,211.676 114.133,211.034 114.94,211.034C116.339,211.034 117.957,212.967 120.267,217.083C119.405,216.125 118.654,215.661 117.956,215.661C117.147,215.661 116.41,216.284 115.656,217.483C115.643,217.504 115.63,217.525 115.617,217.546L115.59,217.591L115.589,217.592C115.586,217.597 115.583,217.602 115.58,217.607C115.578,217.611 115.575,217.616 115.573,217.62C115.56,217.641 115.547,217.664 115.535,217.686C115.528,217.698 115.522,217.709 115.515,217.721C115.512,217.726 115.509,217.732 115.506,217.737C115.503,217.743 115.5,217.748 115.497,217.754C113.172,222.028 110.113,242.06 103.801,242.07L103.797,242.07Z" style="fill:rgb(212,215,214);fill-rule:nonzero;"/>
        <path d="M61.527,138.539C61.56,147.021 61.67,155.493 61.976,163.939C62.165,168.16 62.361,172.38 62.826,176.553C63.065,178.635 63.321,180.717 63.764,182.726C63.983,183.728 64.252,184.715 64.612,185.61C64.794,186.049 64.999,186.482 65.238,186.8C65.474,187.129 65.727,187.306 65.838,187.293C65.953,187.311 66.163,187.276 66.447,187.008C66.723,186.762 66.99,186.377 67.23,185.976C67.715,185.162 68.102,184.213 68.447,183.253C69.133,181.32 69.645,179.288 70.118,177.247C71.069,173.16 71.741,168.989 72.408,164.818C73.663,156.461 74.72,148.054 75.694,139.628C75.496,148.11 74.957,156.587 73.954,165.029C73.467,169.253 72.827,173.461 71.967,177.655C71.525,179.751 71,181.835 70.289,183.904C69.925,184.938 69.522,185.967 68.933,186.982C68.631,187.487 68.304,187.995 67.797,188.47C67.329,188.931 66.49,189.416 65.541,189.27C64.575,189.119 64.005,188.475 63.629,187.966C63.24,187.428 63.001,186.888 62.78,186.35C62.358,185.275 62.083,184.207 61.856,183.138C61.41,181.002 61.142,178.873 60.947,176.741C60.583,172.478 60.427,168.225 60.421,163.974C60.378,155.474 60.788,146.991 61.527,138.539Z" style="fill:rgb(175,179,175);fill-rule:nonzero;"/>
        <path d="M115.292,138.539C116.032,146.991 116.441,155.474 116.398,163.974C116.393,168.225 116.237,172.478 115.873,176.741C115.678,178.873 115.409,181.002 114.963,183.138C114.736,184.207 114.461,185.275 114.039,186.35C113.818,186.888 113.579,187.428 113.19,187.966C112.814,188.475 112.244,189.119 111.278,189.27C110.329,189.416 109.49,188.931 109.022,188.47C108.515,187.995 108.188,187.487 107.886,186.982C107.297,185.967 106.895,184.938 106.53,183.904C105.819,181.835 105.294,179.751 104.853,177.655C103.993,173.461 103.352,169.253 102.865,165.029C101.862,156.587 101.324,148.11 101.125,139.628C102.099,148.054 103.156,156.461 104.412,164.818C105.079,168.989 105.75,173.16 106.702,177.247C107.174,179.288 107.686,181.32 108.373,183.253C108.717,184.213 109.104,185.162 109.589,185.976C109.829,186.377 110.097,186.762 110.372,187.008C110.656,187.276 110.866,187.311 110.981,187.293C111.093,187.306 111.345,187.129 111.582,186.8C111.821,186.482 112.025,186.049 112.207,185.61C112.568,184.715 112.836,183.728 113.056,182.726C113.498,180.717 113.754,178.635 113.994,176.553C114.458,172.38 114.655,168.16 114.844,163.939C115.148,155.493 115.259,147.021 115.292,138.539Z" style="fill:rgb(175,179,175);fill-rule:nonzero;"/>
        <path d="M78.46,102.85C78.46,106.209 76.875,108.934 74.918,108.934C72.962,108.934 71.377,106.209 71.377,102.85C71.377,99.489 72.962,96.766 74.918,96.766C76.875,96.766 78.46,99.489 78.46,102.85Z" style="fill:rgb(26,45,64);fill-rule:nonzero;"/>
        <path d="M109.448,102.85C109.448,106.209 107.862,108.934 105.906,108.934C103.95,108.934 102.365,106.209 102.365,102.85C102.365,99.489 103.95,96.766 105.906,96.766C107.862,96.766 109.448,99.489 109.448,102.85Z" style="fill:rgb(26,45,64);fill-rule:nonzero;"/>
        <path d="M86.89,105.933C87.285,107.31 87.729,108.659 88.268,109.933C88.559,110.556 88.854,111.176 89.251,111.688C89.643,112.194 90.123,112.579 90.628,112.592C91.131,112.644 91.605,112.33 91.966,111.81C92.342,111.304 92.599,110.669 92.843,110.029C93.28,108.722 93.61,107.339 93.883,105.933C93.997,107.365 93.928,108.817 93.592,110.249C93.419,110.965 93.165,111.675 92.744,112.35C92.528,112.685 92.236,112.997 91.87,113.245C91.488,113.484 91.025,113.615 90.566,113.589C89.617,113.521 88.921,112.863 88.487,112.243C88.059,111.592 87.764,110.907 87.54,110.207C87.097,108.809 86.903,107.369 86.89,105.933Z" style="fill:rgb(26,45,64);fill-rule:nonzero;"/>
    </g>
</svg>
