<?xml version="1.0" encoding="UTF-8" standalone="no"?><!DOCTYPE svg PUBLIC "-//W3C//DTD SVG 1.1//EN" "http://www.w3.org/Graphics/SVG/1.1/DTD/svg11.dtd"><svg width="2084px" height="2192px" version="1.1" xmlns="http://www.w3.org/2000/svg" xmlns:xlink="http://www.w3.org/1999/xlink" xml:space="preserve" xmlns:serif="http://www.serif.com/" style="fill-rule:evenodd;clip-rule:evenodd;stroke-linejoin:round;stroke-miterlimit:2;"><g transform="matrix(9.2644,0,0,9.2644,-254.041,-321.549)"><clipPath id="_clip1"><path d="M145.921,238.578C92.636,238.578 49.441,195.382 49.441,142.098C49.441,88.813 92.636,45.618 145.921,45.618C199.206,45.618 242.402,88.813 242.402,142.098C242.402,195.382 199.206,238.578 145.921,238.578Z"/></clipPath><g clip-path="url(#_clip1)"><path d="M145.921,238.578C92.636,238.578 49.441,195.382 49.441,142.098C49.441,88.813 92.636,45.618 145.921,45.618C199.206,45.618 242.402,88.813 242.402,142.098C242.402,195.382 199.206,238.578 145.921,238.578Z" style="fill:none;fill-rule:nonzero;"/><clipPath id="_clip2"><path d="M145.921,238.578C92.636,238.578 49.441,195.382 49.441,142.098C49.441,88.813 92.636,45.618 145.921,45.618C199.206,45.618 242.402,88.813 242.402,142.098C242.402,195.382 199.206,238.578 145.921,238.578Z" clip-rule="nonzero"/></clipPath><g clip-path="url(#_clip2)"><path d="M148.635,119.946C148.635,119.946 135.478,103.667 143.066,98.28C149.741,93.541 157.472,94.044 157.472,94.044L156.123,81.332C156.123,81.332 134.371,80.348 129.354,93.497C124.34,106.646 126.155,121.557 126.155,121.557C126.155,121.557 148.612,126.082 148.635,119.946Z" style="fill:rgb(0,33,51);fill-rule:nonzero;"/><path d="M140.709,103.224C140.71,101.234 141.369,99.485 143.066,98.28C143.185,98.196 143.304,98.114 143.422,98.033C143.304,98.114 143.185,98.196 143.066,98.28C141.369,99.485 140.71,101.234 140.709,103.224ZM143.433,98.026C143.462,98.006 143.491,97.987 143.52,97.967C143.491,97.987 143.462,98.006 143.433,98.026ZM143.535,97.957C143.541,97.953 143.546,97.949 143.552,97.946C143.546,97.949 143.541,97.953 143.535,97.957ZM143.639,97.888C143.642,97.886 143.646,97.883 143.65,97.881C143.646,97.883 143.642,97.886 143.639,97.888ZM143.745,97.818C143.746,97.818 143.747,97.817 143.747,97.817C143.747,97.817 143.746,97.818 143.745,97.818ZM157.472,94.044C157.472,94.044 157.236,94.028 156.81,94.028C157.236,94.028 157.472,94.044 157.472,94.044ZM156.735,94.029C156.76,94.028 156.785,94.028 156.809,94.028C156.785,94.028 156.76,94.028 156.735,94.029Z" style="fill:rgb(86,59,151);fill-rule:nonzero;"/><path d="M125.885,112.171C125.892,111.976 125.9,111.779 125.909,111.579C129.151,111.296 132.057,110.717 132.645,107.736C135.717,94.179 145.506,89.408 156.647,86.272L157.472,94.044C157.472,94.044 157.236,94.028 156.81,94.028L156.809,94.028C156.785,94.028 156.76,94.028 156.735,94.029C154.737,94.037 149.011,94.386 143.747,97.817C143.747,97.817 143.746,97.818 143.745,97.818C143.713,97.839 143.681,97.86 143.65,97.881C143.646,97.883 143.642,97.886 143.639,97.888C143.61,97.907 143.581,97.926 143.552,97.946C143.546,97.949 143.541,97.953 143.535,97.957C143.531,97.96 143.525,97.964 143.52,97.967C143.491,97.987 143.462,98.006 143.433,98.026C143.429,98.028 143.426,98.03 143.422,98.033C143.304,98.114 143.185,98.196 143.066,98.28C141.369,99.485 140.71,101.234 140.709,103.224C140.707,105.315 141.433,107.673 142.445,109.943C141.477,109.873 140.501,109.838 139.518,109.838C134.789,109.838 130.215,110.652 125.885,112.171Z" style="fill:rgb(0,19,35);fill-rule:nonzero;"/><path d="M159.91,87.303C160.356,90.81 159.382,93.825 157.733,94.035C156.083,94.244 154.385,91.571 153.938,88.063C153.491,84.556 154.466,81.542 156.115,81.332C157.764,81.122 159.463,83.795 159.91,87.303Z" style="fill:rgb(0,2,13);fill-rule:nonzero;"/><clipPath id="_clip3"><path d="M134.294,126.77C134.294,126.77 116.557,101.185 86.713,120.037C56.871,138.889 43.638,229.304 132.323,205.257L134.294,126.77Z"/></clipPath><g clip-path="url(#_clip3)"><path d="M134.294,126.77C134.294,126.77 116.557,101.185 86.713,120.037C56.871,138.89 43.638,229.304 132.323,205.257L134.294,126.77Z" style="fill:rgb(221,84,38);fill-rule:nonzero;"/></g><clipPath id="_clip4"><path d="M134.294,126.77C134.294,126.77 116.557,101.185 86.713,120.037C56.871,138.889 43.638,229.304 132.323,205.257L134.294,126.77Z"/></clipPath><g clip-path="url(#_clip4)"><path d="M84.567,182.739C75.852,179.688 68.593,172.765 64.391,164.391C62.319,192.446 78.657,219.808 132.323,205.257L133.307,166.091C121.253,179.714 102.583,188.503 84.567,182.739Z" style="fill:rgb(164,58,34);fill-rule:nonzero;"/></g><clipPath id="_clip5"><path d="M134.294,126.77C134.294,126.77 116.557,101.185 86.713,120.037C56.871,138.889 43.638,229.304 132.323,205.257L134.294,126.77Z"/></clipPath><g clip-path="url(#_clip5)"><path d="M113.073,107.543C108.388,110.31 104.136,113.722 100.504,117.699C96.82,121.626 93.725,126.063 91.114,130.752C85.896,140.146 82.544,150.509 80.754,161.1C78.936,171.672 78.837,182.586 81.158,193.067C83.521,203.507 88.264,213.542 95.614,221.596C91.594,217.92 88.256,213.506 85.495,208.768C82.795,203.988 80.751,198.831 79.371,193.498C77.974,188.162 77.33,182.652 77.176,177.148C77.061,171.637 77.542,166.13 78.433,160.706C79.383,155.292 80.72,149.946 82.547,144.755C84.408,139.581 86.681,134.542 89.531,129.833C95.096,120.378 103.206,112.218 113.073,107.543Z" style="fill:rgb(138,40,26);fill-rule:nonzero;"/></g><clipPath id="_clip6"><path d="M144.742,126.77C144.742,126.77 162.479,101.185 192.322,120.037C222.165,138.889 235.397,229.304 146.713,205.257L144.742,126.77Z"/></clipPath><g clip-path="url(#_clip6)"><path d="M144.742,126.77C144.742,126.77 162.479,101.185 192.322,120.037C222.165,138.889 235.397,229.304 146.713,205.257L144.742,126.77Z" style="fill:rgb(221,84,38);fill-rule:nonzero;"/></g><clipPath id="_clip7"><path d="M144.742,126.77C144.742,126.77 162.479,101.185 192.322,120.037C222.165,138.889 235.397,229.304 146.713,205.257L144.742,126.77Z"/></clipPath><g clip-path="url(#_clip7)"><path d="M145.752,167L146.713,205.257C198.186,219.214 215.321,194.611 214.808,167.822C206.614,173.971 196.116,177.243 185.846,177.243C172.19,177.864 155.597,176.514 145.752,167Z" style="fill:rgb(164,58,34);fill-rule:nonzero;"/></g><clipPath id="_clip8"><path d="M144.742,126.77C144.742,126.77 162.479,101.185 192.322,120.037C222.165,138.889 235.397,229.304 146.713,205.257L144.742,126.77Z"/></clipPath><g clip-path="url(#_clip8)"><path d="M164.807,107.543C174.675,112.218 182.784,120.378 188.349,129.833C191.199,134.542 193.472,139.581 195.333,144.755C197.16,149.946 198.497,155.292 199.447,160.706C200.338,166.13 200.819,171.637 200.704,177.148C200.55,182.652 199.906,188.162 198.509,193.498C197.129,198.831 195.085,203.988 192.385,208.768C189.624,213.506 186.286,217.92 182.266,221.596C189.616,213.542 194.359,203.507 196.723,193.067C199.043,182.586 198.944,171.672 197.126,161.1C195.335,150.509 191.984,140.146 186.766,130.752C184.155,126.063 181.06,121.626 177.376,117.699C173.745,113.722 169.493,110.31 164.807,107.543Z" style="fill:rgb(138,40,26);fill-rule:nonzero;"/></g><path d="M90.105,170.36C90.105,203.786 112.228,212.564 139.518,212.564C166.808,212.564 188.931,203.786 188.931,170.36C188.931,136.935 166.808,109.838 139.518,109.838C112.228,109.838 90.105,136.935 90.105,170.36Z" style="fill:rgb(243,114,39);fill-rule:nonzero;"/><path d="M158.368,192.945C135.099,198.605 103.774,194.186 90.21,174.048C91.802,204.427 113.264,212.564 139.518,212.564C166.808,212.564 188.931,203.786 188.931,170.36C188.931,168.925 188.875,167.506 188.795,166.096C182.717,178.773 172.514,189.043 158.368,192.945Z" style="fill:rgb(203,82,39);fill-rule:nonzero;"/><path d="M147.982,110.725C147.982,110.725 105.388,99.625 91.993,153.736C91.993,153.736 110.655,110.429 147.982,110.725Z" style="fill:rgb(249,162,90);fill-rule:nonzero;"/><path d="M110.595,131.761C110.595,135.663 113.984,138.827 118.165,138.827C122.346,138.827 125.736,135.663 125.736,131.761C125.736,127.858 122.346,124.695 118.165,124.695C113.984,124.695 110.595,127.858 110.595,131.761Z" style="fill:rgb(203,82,39);fill-rule:nonzero;"/><path d="M124.02,121.987C124.02,124.154 125.901,125.91 128.222,125.91C130.543,125.91 132.425,124.154 132.425,121.987C132.425,119.821 130.543,118.065 128.222,118.065C125.901,118.065 124.02,119.821 124.02,121.987Z" style="fill:rgb(203,82,39);fill-rule:nonzero;"/><path d="M128.707,129.832C128.707,131.998 130.588,133.755 132.909,133.755C135.23,133.755 137.112,131.998 137.112,129.832C137.112,127.666 135.23,125.91 132.909,125.91C130.588,125.91 128.707,127.666 128.707,129.832Z" style="fill:rgb(203,82,39);fill-rule:nonzero;"/><clipPath id="_clip9"><path d="M156.152,159.825C151.724,156.309 147.082,158.428 143.831,161.005C141.292,163.018 137.745,163.018 135.206,161.005C131.954,158.428 127.312,156.309 122.883,159.825C115.126,165.983 123.363,180.059 139.518,180.059C155.673,180.059 163.91,165.983 156.152,159.825Z"/></clipPath><g clip-path="url(#_clip9)"><path d="M156.152,159.825C151.724,156.309 147.082,158.428 143.831,161.005C141.292,163.018 137.745,163.018 135.206,161.005C131.954,158.428 127.312,156.309 122.883,159.825C115.126,165.983 123.363,180.058 139.518,180.058C155.673,180.058 163.91,165.983 156.152,159.825Z" style="fill:rgb(164,58,34);fill-rule:nonzero;"/></g><clipPath id="_clip10"><path d="M156.152,159.825C151.724,156.309 147.082,158.428 143.831,161.005C141.292,163.018 137.745,163.018 135.206,161.005C131.954,158.428 127.312,156.309 122.883,159.825C115.126,165.983 123.363,180.059 139.518,180.059C155.673,180.059 163.91,165.983 156.152,159.825Z"/></clipPath><g clip-path="url(#_clip10)"><path d="M118.042,167.657C118.042,174.695 125.938,180.401 135.678,180.401C145.418,180.401 153.314,174.695 153.314,167.657C153.314,160.619 145.418,154.912 135.678,154.912C125.938,154.912 118.042,160.619 118.042,167.657Z" style="fill:rgb(30,5,4);fill-rule:nonzero;"/></g><path d="M154.294,152.896C154.294,156.605 157.301,159.612 161.011,159.612C164.72,159.612 167.727,156.605 167.727,152.896C167.727,149.187 164.72,146.18 161.011,146.18C157.301,146.18 154.294,149.187 154.294,152.896Z" style="fill:rgb(164,58,34);fill-rule:nonzero;"/><clipPath id="_clip11"><path d="M154.294,152.896C154.294,156.605 157.301,159.612 161.011,159.612C164.72,159.612 167.727,156.605 167.727,152.896C167.727,149.187 164.72,146.18 161.011,146.18C157.301,146.18 154.294,149.187 154.294,152.896Z"/></clipPath><g clip-path="url(#_clip11)"><path d="M150.984,152.896C150.984,156.605 153.991,159.612 157.7,159.612C161.41,159.612 164.417,156.605 164.417,152.896C164.417,149.187 161.41,146.18 157.7,146.18C153.991,146.18 150.984,149.187 150.984,152.896Z" style="fill:rgb(30,5,4);fill-rule:nonzero;"/></g><path d="M111.449,152.896C111.449,156.605 114.456,159.612 118.165,159.612C121.875,159.612 124.881,156.605 124.881,152.896C124.881,149.187 121.875,146.18 118.165,146.18C114.456,146.18 111.449,149.187 111.449,152.896Z" style="fill:rgb(164,58,34);fill-rule:nonzero;"/><clipPath id="_clip12"><path d="M111.449,152.896C111.449,156.605 114.456,159.612 118.165,159.612C121.874,159.612 124.881,156.605 124.881,152.896C124.881,149.187 121.874,146.18 118.165,146.18C114.456,146.18 111.449,149.187 111.449,152.896Z"/></clipPath><g clip-path="url(#_clip12)"><path d="M108.139,152.896C108.139,156.605 111.146,159.612 114.855,159.612C118.564,159.612 121.571,156.605 121.571,152.896C121.571,149.187 118.564,146.18 114.855,146.18C111.146,146.18 108.139,149.187 108.139,152.896Z" style="fill:rgb(30,5,4);fill-rule:nonzero;"/></g><path d="M148.728,155.327C148.728,155.327 155.374,164.492 149.288,166.73C143.201,168.969 142.151,159.664 142.361,157.775C142.571,155.886 148.728,155.327 148.728,155.327Z" style="fill:rgb(243,114,39);fill-rule:nonzero;"/><path d="M137.886,184.705C137.886,184.705 131.24,175.54 137.326,173.302C143.413,171.063 144.462,180.368 144.252,182.257C144.042,184.146 137.886,184.705 137.886,184.705Z" style="fill:rgb(243,114,39);fill-rule:nonzero;"/><path d="M128.963,155.327C128.963,155.327 122.316,164.492 128.403,166.73C134.49,168.969 135.539,159.664 135.329,157.775C135.119,155.886 128.963,155.327 128.963,155.327Z" style="fill:rgb(243,114,39);fill-rule:nonzero;"/></g></g></g></svg>